<svg id="Слой_1" data-name="Слой 1" xmlns="http://www.w3.org/2000/svg" viewBox="0 0 246.57 224.95"><defs><style>.cls-1{fill:#fff;}</style></defs><path d="M192.45,223.44h-.1c-10.17,0-20.64-6.15-31.11-18.2A111.7,111.7,0,0,1,149,188.09a5.8,5.8,0,0,1,10.14-5.64c4.55,8.16,19.39,29.34,33.2,29.39h.07c4.38,0,7.77-1.36,10.35-4.14,6.19-6.66,6.65-20,6.3-24.53a5.8,5.8,0,1,1,11.57-.89c.07.88,1.51,21.62-9.37,33.32C206.47,220.8,200.12,223.44,192.45,223.44Z"/><path d="M233.2,181.63H198.83a5.81,5.81,0,1,1,0-11.61H233.2a5.81,5.81,0,0,1,0,11.61Z"/><path class="cls-1" d="M186,67.47h.45a17.16,17.16,0,0,1,17.16,17.16v0a17.16,17.16,0,0,1-17.16,17.16H186a0,0,0,0,1,0,0V67.47A0,0,0,0,1,186,67.47Z"/><path d="M188.7,102.29H186a.51.51,0,0,1-.51-.51V67.47A.51.51,0,0,1,186,67h2.74a15.4,15.4,0,0,1,15.38,15.37v4.58A15.4,15.4,0,0,1,188.7,102.29Zm-2.23-1h2.23a14.37,14.37,0,0,0,14.36-14.36V82.33A14.38,14.38,0,0,0,188.7,68h-2.23Z"/><path class="cls-1" d="M13.41,67.47h.45A17.16,17.16,0,0,1,31,84.62v0a17.16,17.16,0,0,1-17.16,17.16h-.45a0,0,0,0,1,0,0V67.47A0,0,0,0,1,13.41,67.47Z" transform="translate(44.42 169.25) rotate(-180)"/><path d="M31,102.29H28.28A15.4,15.4,0,0,1,12.9,86.91V82.33A15.4,15.4,0,0,1,28.28,67H31a.51.51,0,0,1,.51.51v34.31A.51.51,0,0,1,31,102.29ZM28.28,68A14.39,14.39,0,0,0,13.91,82.33v4.58a14.38,14.38,0,0,0,14.37,14.36H30.5V68Z"/><path class="cls-1" d="M25.47,83.21c0-36.88,37.17-75,83-75s83,38.14,83,75-37.17,58.51-83,58.51S25.47,120.08,25.47,83.21Z"/><path d="M108.49,142.23c-23,0-44-5.51-59-15.51C33.44,116,25,101,25,83.21,25,65,33.88,46.14,49.43,31.5a85.12,85.12,0,0,1,118.11,0C183.1,46.14,192,65,192,83.21c0,17.75-8.49,32.8-24.55,43.51C152.47,136.72,131.52,142.23,108.49,142.23Zm0-133.54C61.26,8.69,26,48,26,83.21c0,17.4,8.33,32.15,24.09,42.66,14.83,9.9,35.58,15.35,58.42,15.35s43.58-5.45,58.42-15.35C182.67,115.36,191,100.61,191,83.21,191,48,155.71,8.69,108.49,8.69Z"/><path class="cls-1" d="M129.28,152.8H87.69a33,33,0,0,0-33,33,185.36,185.36,0,0,0,3.5,35.87l6,30.29a45.17,45.17,0,0,0,88.63,0l6-30.29a185.37,185.37,0,0,0,3.51-35.87A33,33,0,0,0,129.28,152.8Z"/><path d="M108.49,288.89a45.78,45.78,0,0,1-44.82-36.83l-6-30.28a186.4,186.4,0,0,1-3.51-36,33.55,33.55,0,0,1,33.51-33.52h41.59a33.56,33.56,0,0,1,33.52,33.52,186.41,186.41,0,0,1-3.52,36l-6,30.28A45.77,45.77,0,0,1,108.49,288.89ZM87.69,153.31a32.54,32.54,0,0,0-32.5,32.5,185.13,185.13,0,0,0,3.5,35.77l6,30.29a44.66,44.66,0,0,0,87.63,0l6-30.29a185.13,185.13,0,0,0,3.5-35.77,32.54,32.54,0,0,0-32.5-32.5Z"/><path d="M131.13,153.31H85.85a.51.51,0,0,1,0-1h45.28a.51.51,0,0,1,0,1Z"/><path d="M164.3,72.14H84.36c-8.31,0-15,7.25-15,16.2V98.92c0,6.82,3.64,14.06,9.92,15.24,22.16,4.16,68,4.16,90.17,0,6.29-1.18,9.93-8.42,9.93-15.24V88.34C179.34,79.39,172.61,72.14,164.3,72.14Z"/><ellipse class="cls-1" cx="100.51" cy="93.42" rx="5.04" ry="5.43"/><ellipse class="cls-1" cx="154.11" cy="93.42" rx="5.04" ry="5.43"/><circle class="cls-1" cx="109.4" cy="191.85" r="26.65" transform="translate(-102.45 254.25) rotate(-76.72)"/><path d="M109.4,219a27.16,27.16,0,1,1,27.16-27.16A27.19,27.19,0,0,1,109.4,219Z"/><path d="M55.39,249.82c-11.38,0-26.76-1.62-36.62-9.18a24.72,24.72,0,0,1-9.87-17.1c-3.88-31.37,34-49.33,35.6-50.08A5.8,5.8,0,1,1,49.39,184c-.32.15-31.81,15.16-29,38.14a13.34,13.34,0,0,0,5.41,9.31c10.84,8.31,34.49,7.15,42.68,6a5.8,5.8,0,1,1,1.62,11.49A116,116,0,0,1,55.39,249.82Z"/></svg>