<?xml version="1.0" encoding="utf-8"?>
<!-- Generator: Adobe Illustrator 26.0.1, SVG Export Plug-In . SVG Version: 6.00 Build 0)  -->
<svg version="1.1" id="Слой_1" xmlns="http://www.w3.org/2000/svg" xmlns:xlink="http://www.w3.org/1999/xlink" x="0px" y="0px"
	 viewBox="0 0 628 185" style="enable-background:new 0 0 628 185;" xml:space="preserve">
<style type="text/css">
	.st0{fill:#04110F;}
</style>
<path class="st0" d="M57.9,107.1h15.5l23.3-23.3L73.5,60.5H26.9L11.7,45h69.5L120,83.9l-38.8,38.8H57.9L57.9,107.1z M50.1,122.7
	V68.3H30.8v54.3H50.1z"/>
<path class="st0" d="M205.6,60.6l-14.9-15.5h57.6l23.3,23.3l-11.6,11.7h-23.3l11.7-11.6l-7.8-7.8L205.6,60.6z M228.8,122.8h-19.4
	V68.4h19.4V122.8z M236.6,87.8v15.5h15.5l19.4,19.4h23.3l-34.9-35L236.6,87.8z"/>
<path class="st0" d="M275.4,122.8V45.1h19.4l0,77.7H275.4z M310.4,76.2l31.1-31h23.3L325.9,84l38.8,38.8h-23.3l-31-31.1h-7.8V76.2
	L310.4,76.2z"/>
<path class="st0" d="M143.3,60.6h-23.3L105,45h46.1l77.6,77.7h-23.3L143.3,60.6z M123.9,68.3v54.3h19.4v-19.4h34.9l-15.5-15.5h-19.4
	V68.4L123.9,68.3z"/>
<path class="st0" d="M398.9,107.1h15.5l23.3-23.3l-23.3-23.3h-46.6L352.7,45h69.5L461,83.9l-38.9,38.8h-23.3L398.9,107.1z
	 M391.1,122.7V68.3h-19.4v54.3H391.1z"/>
<path class="st0" d="M461,60.6L446,45l108.2,0.1l-15.5,15.6L461,60.6z M464.9,122.7h69.9l-15.5-15.5h-34.9V91.7h19.4l15.5-15.5
	h-34.9v-7.8h-19.4L464.9,122.7z"/>
<path class="st0" d="M558.1,45.1V80l35-34.9h23.3l-77.7,77.6V45.1L558.1,45.1z"/>
<polygon class="st0" points="615.8,77.2 615.8,123.4 569.7,123.4 583.7,109.4 601.8,109.4 601.8,91.2 "/>
<path class="st0" d="M207.7,141.6v15.7h-2.6V139h11.8c2.9,0,5.2,2.3,5.2,5.2s-2.3,5.2-5.2,5.2h-2.1l7.8,7.8h-3.7l-10.4-10.4h8.4
	c0.7,0,1.4-0.3,1.9-0.8c1-1,1-2.7,0-3.7c-0.5-0.5-1.2-0.8-1.9-0.8L207.7,141.6z"/>
<path class="st0" d="M240,139v2.6h-13.1v13.1H240v2.6h-15.7V139H240z M240,149.4h-10.5v-2.6H240V149.4z"/>
<path class="st0" d="M245.2,141.6v15.7h-2.6V139h15.7v2.6L245.2,141.6z M258.2,149.5h-10.4v-2.6h10.4V149.5z"/>
<path class="st0" d="M260.8,139h2.6v15.7h13.1v2.6h-15.7V139z"/>
<path class="st0" d="M294.3,139v2.6h-13v13.1h13v2.6h-15.7V139H294.3z M294.3,149.4h-10.4v-2.6h10.4V149.4z"/>
<path class="st0" d="M305.3,139h7.8v2.6h-7.8c-3.6,0.1-6.4,3.2-6.3,6.8c0.1,3.4,2.9,6.1,6.3,6.3h7.8v2.6h-7.8c-5-0.2-9-4.4-8.8-9.4
	C296.7,143,300.5,139.2,305.3,139z"/>
<path class="st0" d="M331.4,141.6h-15.7V139h15.7V141.6z M324.9,157.3h-2.6v-13h2.6L324.9,157.3z"/>
<path class="st0" d="M336.7,157.3h-2.6v-2.6h2.6V157.3z"/>
<path class="st0" d="M355,139h7.8v2.6H355c-3.6,0.1-6.4,3.2-6.3,6.8c0.1,3.4,2.9,6.1,6.3,6.3h5.2v-5.2H355v-2.6h7.8v10.4H355
	c-5-0.2-9-4.4-8.8-9.4C346.3,143,350.2,139.2,355,139z"/>
<path class="st0" d="M368.4,154.7h8.8v2.6h-13l9.7-19.9l9.7,19.9h-2.9l-6.7-13.9L368.4,154.7z"/>
<path class="st0" d="M387.7,142.9v14.4h-2.6V139h2.6l6.5,6.5l6.5-6.5h2.6v18.3h-2.6v-14.3l-6.5,6.5L387.7,142.9z"/>
<path class="st0" d="M408.5,157.3h-2.6V139h2.6V157.3z"/>
<path class="st0" d="M413.8,141.6v15.7h-2.6V139h15.7v2.6L413.8,141.6z M426.8,149.5h-10.4v-2.6h10.4V149.5z"/>
<path class="st0" d="M435.9,148.6l-8.2-9.6h3.4l6,7.1l6-7.1h3.4l-8.1,9.6v8.7h-2.6L435.9,148.6z"/>
<path class="st0" d="M450.9,157.3h-2.6v-2.6h2.6V157.3z"/>
<path class="st0" d="M460.1,139h11.8c2.9,0,5.2,2.3,5.2,5.2s-2.3,5.2-5.2,5.2h-9.1v7.8h-2.6V139z M462.7,141.6v5.2h9.1
	c0.7,0,1.4-0.3,1.9-0.8c1-1,1-2.7,0-3.7c-0.5-0.5-1.2-0.8-1.9-0.8H462.7z"/>
<path class="st0" d="M481.8,141.6v15.7h-2.6V139h11.8c2.9,0,5.2,2.3,5.2,5.2s-2.3,5.2-5.2,5.2h-2.1l7.8,7.8H493l-10.4-10.4h8.4
	c0.7,0,1.4-0.3,1.8-0.8c1-1,1-2.7,0-3.7c-0.5-0.5-1.2-0.8-1.8-0.8L481.8,141.6z"/>
<path class="st0" d="M507.4,157.9c-5.4,0-9.8-4.4-9.8-9.8c0-5.4,4.4-9.8,9.8-9.8c5.4,0,9.8,4.4,9.8,9.8c0,2.6-1,5.1-2.9,6.9
	C512.5,156.9,510,158,507.4,157.9z M507.4,155.3c4,0,7.2-3.2,7.2-7.2c0-4-3.2-7.2-7.2-7.2c-4,0-7.2,3.2-7.2,7.2
	c0,1.9,0.8,3.7,2.1,5.1C503.6,154.6,505.4,155.4,507.4,155.3z"/>
<path class="st0" d="M528.2,139h7.8v2.6h-7.8c-3.6,0.1-6.4,3.2-6.3,6.8c0.1,3.4,2.9,6.1,6.3,6.3h5.2v-5.2h-5.2v-2.6h7.8v10.4h-7.8
	c-5-0.2-9-4.4-8.8-9.4C519.6,143,523.4,139.2,528.2,139z"/>
<path class="st0" d="M541.3,141.6v15.7h-2.6V139h11.8c2.9,0,5.2,2.3,5.2,5.2s-2.3,5.2-5.2,5.2l0,0h-2.1l7.8,7.8h-3.7L542,146.9h8.4
	c0.7,0,1.4-0.3,1.8-0.8c1-1,1-2.7,0-3.7c-0.5-0.5-1.2-0.8-1.8-0.8H541.3z"/>
<path class="st0" d="M573.6,139v2.6h-13v13.1h13v2.6h-15.7V139H573.6z M573.6,149.4h-10.4v-2.6h10.4V149.4z"/>
<path class="st0" d="M580.7,139h11.8v2.6h-11.8c-1.4,0-2.6,1.2-2.6,2.6c0,0.7,0.3,1.4,0.8,1.8c0.5,0.5,1.1,0.8,1.8,0.8h6.5
	c2.9,0,5.2,2.3,5.2,5.2s-2.3,5.2-5.2,5.2h-11.8v-2.6h11.8c0.7,0,1.4-0.3,1.8-0.8c1-1,1-2.7,0-3.7c-0.5-0.5-1.2-0.8-1.8-0.8h-6.5
	c-2.9,0-5.2-2.3-5.2-5.2S577.8,139,580.7,139L580.7,139z"/>
<path class="st0" d="M599.2,139h11.7v2.6h-11.7c-1.4,0-2.6,1.2-2.6,2.6c0,0.7,0.3,1.3,0.8,1.8c0.5,0.5,1.2,0.8,1.8,0.8h6.5
	c2.9,0,5.2,2.3,5.2,5.2s-2.3,5.2-5.2,5.2h-11.7v-2.6h11.7c1.4,0,2.6-1.2,2.6-2.6c0-0.7-0.3-1.3-0.8-1.8c-0.5-0.5-1.2-0.8-1.8-0.8
	h-6.5c-2.9,0-5.2-2.3-5.2-5.2S596.3,139,599.2,139z"/>
<path class="st0" d="M616.1,157.3h-2.6v-2.6h2.6V157.3z"/>
</svg>
