<svg id="Слой_1" data-name="Слой 1" xmlns="http://www.w3.org/2000/svg" viewBox="0 0 628 185"><defs><style>.cls-1{fill:#3f3f3f;}</style></defs><path class="cls-1" d="M57.91,107.13H73.44l23.3-23.28L73.46,60.55l-46.59,0L11.69,45l69.54,0L120,83.87l-38.84,38.8H57.9Zm-7.78,15.53,0-54.35H30.75l0,54.35Z"/><path class="cls-1" d="M205.57,60.62,190.71,45.09l57.57,0,23.28,23.3L259.91,80.06h-23.3l11.66-11.64-7.76-7.77Zm23.26,62.13H209.42l0-54.35h19.41Zm7.78-34.93v15.52h15.53l19.4,19.42,23.29,0-34.92-35Z"/><path class="cls-1" d="M275.41,122.78l0-77.65h19.42l-.05,77.65Zm35-46.57,31.07-31h23.3L325.9,84l38.8,38.84H341.41l-31-31.07h-7.76V76.2Z"/><path class="cls-1" d="M143.34,60.59H120.05L105,45l46.14,0,77.61,77.68h-23.3Zm-19.42,7.76,0,54.35h19.41V103.3h34.94L162.74,87.78H143.33V68.36Z"/><path class="cls-1" d="M398.88,107.13h15.53l23.3-23.28L414.43,60.55l-46.58,0L352.66,45l69.54,0L461,83.87l-38.85,38.8H398.87Zm-7.77,15.53,0-54.35H371.72l0,54.35Z"/><path class="cls-1" d="M461,60.58,446.05,45l108.15.06L538.66,60.62Zm3.85,62.12,69.88,0L519.23,107.2l-34.94,0V91.65h19.42l15.53-15.52-34.94,0V68.36H464.9Z"/><path class="cls-1" d="M558.08,45.1l0,34.94,35-34.92h23.29l-77.68,77.61,0-77.65Z"/><polygon class="cls-1" points="615.82 77.23 615.82 123.36 569.69 123.36 583.69 109.36 601.82 109.36 601.82 91.24 615.82 77.23"/><path class="cls-1" d="M207.67,141.63v15.66h-2.61V139h11.75a5.22,5.22,0,0,1,0,10.44h-2.06l7.83,7.83h-3.71l-10.44-10.44h8.38a2.52,2.52,0,0,0,1.85-.76,2.61,2.61,0,0,0-1.85-4.46Z"/><path class="cls-1" d="M240,139v2.61H226.91v13.05H240v2.61H224.3V139Zm0,10.44H229.52v-2.61H240Z"/><path class="cls-1" d="M245.18,141.63v15.66h-2.61V139h15.66v2.61Zm13.05,7.83H247.79v-2.61h10.44Z"/><path class="cls-1" d="M260.84,139h2.61v15.66H276.5v2.61H260.84Z"/><path class="cls-1" d="M294.27,139v2.61h-13v13.05h13v2.61H278.61V139Zm0,10.44H283.83v-2.61h10.44Z"/><path class="cls-1" d="M305.34,139h7.83v2.61h-7.83a6.53,6.53,0,0,0,0,13.05h7.83v2.61h-7.83a9.14,9.14,0,0,1,0-18.27Z"/><path class="cls-1" d="M331.44,141.63H315.78V139h15.66Zm-6.53,15.66H322.3v-13h2.61Z"/><path class="cls-1" d="M336.66,157.29h-2.61v-2.61h2.61Z"/><path class="cls-1" d="M355,139h7.83v2.61H355a6.53,6.53,0,0,0,0,13.05h5.22v-5.22H355v-2.61h7.83v10.44H355A9.14,9.14,0,0,1,355,139Z"/><path class="cls-1" d="M368.44,154.68h8.78v2.61h-13l9.7-19.87,9.69,19.87h-2.91L374,143.37Z"/><path class="cls-1" d="M387.66,142.94v14.35h-2.61V139h2.61l6.52,6.53,6.53-6.53h2.61v18.27h-2.61V142.94l-6.53,6.52Z"/><path class="cls-1" d="M408.54,157.29h-2.61V139h2.61Z"/><path class="cls-1" d="M413.76,141.63v15.66h-2.61V139h15.66v2.61Zm13.05,7.83H416.37v-2.61h10.44Z"/><path class="cls-1" d="M435.88,148.63,427.72,139h3.42l6,7.13,6-7.13h3.42l-8.15,9.61v8.66h-2.61Z"/><path class="cls-1" d="M450.88,157.29h-2.61v-2.61h2.61Z"/><path class="cls-1" d="M460.12,139h11.75a5.22,5.22,0,0,1,0,10.44h-9.14v7.83h-2.61Zm2.61,2.61v5.22h9.14a2.52,2.52,0,0,0,1.85-.76,2.61,2.61,0,0,0-1.85-4.46Z"/><path class="cls-1" d="M481.77,141.63v15.66h-2.61V139h11.75a5.22,5.22,0,0,1,0,10.44h-2.06l7.83,7.83H493l-10.44-10.44h8.38a2.48,2.48,0,0,0,1.84-.76,2.61,2.61,0,0,0-1.84-4.46Z"/><path class="cls-1" d="M507.35,157.94a9.78,9.78,0,1,1,6.92-2.86A9.43,9.43,0,0,1,507.35,157.94Zm0-2.61a7.17,7.17,0,1,0-5.08-2.1A6.93,6.93,0,0,0,507.35,155.33Z"/><path class="cls-1" d="M528.23,139h7.83v2.61h-7.83a6.53,6.53,0,0,0,0,13.05h5.22v-5.22h-5.22v-2.61h7.83v10.44h-7.83a9.14,9.14,0,0,1,0-18.27Z"/><path class="cls-1" d="M541.28,141.63v15.66h-2.61V139h11.75a5.22,5.22,0,0,1,0,10.44h-2.07l7.83,7.83h-3.7L542,146.85h8.38a2.5,2.5,0,0,0,1.84-.76,2.61,2.61,0,0,0-1.84-4.46Z"/><path class="cls-1" d="M573.57,139v2.61H560.52v13.05h13.05v2.61H557.91V139Zm0,10.44H563.13v-2.61h10.44Z"/><path class="cls-1" d="M580.65,139H592.4v2.61H580.65a2.61,2.61,0,0,0-1.84,4.46,2.5,2.5,0,0,0,1.84.76h6.53a5.22,5.22,0,0,1,0,10.44H575.43v-2.61h11.75a2.5,2.5,0,0,0,1.84-.76,2.61,2.61,0,0,0-1.84-4.46h-6.53a5.22,5.22,0,0,1,0-10.44Z"/><path class="cls-1" d="M599.16,139H610.9v2.61H599.16a2.62,2.62,0,0,0-1.85,4.46,2.51,2.51,0,0,0,1.85.76h6.52a5.22,5.22,0,0,1,0,10.44H593.94v-2.61h11.74a2.62,2.62,0,0,0,1.85-4.46,2.56,2.56,0,0,0-1.85-.76h-6.52a5.22,5.22,0,1,1,0-10.44Z"/><path class="cls-1" d="M616.12,157.29h-2.61v-2.61h2.61Z"/></svg>