<svg id="Слой_1" data-name="Слой 1" xmlns="http://www.w3.org/2000/svg" viewBox="0 0 70 70"><path d="M34.73,18.15q9.87,0,19.74,0c4,0,5.21,1.1,5.21,5q0,13.17,0,26.33c0,3.49-1.15,4.78-4.68,4.8q-20.39.09-40.76,0c-3.28,0-4.5-1.41-4.51-4.77q0-13.41,0-26.83c0-3.16,1.26-4.47,4.46-4.5,6.84-.06,13.67,0,20.51,0ZM18.46,31.3a7.49,7.49,0,0,0-.33,1.23c-.16,5.9-.27,11.8-.47,17.7-.06,1.88,1,2,2.44,2,9.62,0,19.23-.06,28.85,0,1.88,0,2.3-.72,2.22-2.39-.16-3.2-.21-6.4-.25-9.61,0-3,0-6,0-9.27-3,2-5.86,4.08-8.82,5.95-9.45,6-5.52,5.94-14.9.16C24.29,35.28,21.49,33.31,18.46,31.3ZM14.23,19.8c-.8.6-2.12,1.12-2.17,1.74a3.75,3.75,0,0,0,1.18,2.93c6.65,4.74,13.39,9.35,20.16,13.92a2.53,2.53,0,0,0,2.26,0q10.7-7.2,21.24-14.61a2.58,2.58,0,0,0,.6-2.18,2.06,2.06,0,0,0-1.56-1.23,6.76,6.76,0,0,0-3.55.7C47,24.56,41.75,28.18,36.5,31.83a2.83,2.83,0,0,1-3.67.07Q25,26.52,17.16,21.26A24.92,24.92,0,0,0,14.23,19.8Zm6.45.54-.18.46c2.2,1.46,4.38,2.95,6.6,4.38,2.46,1.58,5,4.38,7.42,4.33s5.1-2.82,7.62-4.45c2.21-1.43,4.37-2.91,7.08-4.72Zm37,5.78c-2.32,1.6-4.39,2.41-4.35,5.19.08,6.05-.05,12.1-.07,18.16,0,1.33-.2,2.78,1.94,2.74s2.5-1.22,2.49-3c0-5,0-9.93,0-14.89Zm-45.51.64c-.18.23-.37.35-.37.47q0,11.35-.05,22.7c0,1.53.87,2.56,2.36,2.15a3,3,0,0,0,1.43-2.32c.22-5.63,0-11.28.46-16.89C16.29,29.51,14.73,28,12.19,26.76Z"/><path d="M31.73,16.58,49,15.66l0,.81-17.33.91Z"/><path d="M8.23,42.67V29.51h.46V42.75Z"/><path d="M60.61,54V38.64l.75,0C61.46,43.85,62.59,49.06,60.61,54Z"/></svg>