<svg id="Слой_1" data-name="Слой 1" xmlns="http://www.w3.org/2000/svg" viewBox="0 0 70 70"><defs><style>.cls-1{fill:#0d0d0d;}</style></defs><path class="cls-1" d="M40.66,26.12c1.68,0,3.41.06,5.14,0s2.56.52,2.54,2.29q-.08,4.56-.06,9.12c0,1.74-.81,2.25-2.51,2.25-6.07,0-6.12.06-6.07,6.05,0,4.21.21,8.43.39,12.64.14,3.09-.29,3.62-3.27,3.6-2.45,0-4.9-.15-7.34,0s-3.34-.73-3.27-3.2c.16-5.23.09-10.46.12-15.7V40.52c-.36-.23-.49-.39-.63-.4-4.47-.3-4.47-.3-4.44-4.91,0-1.35,0-2.7,0-4.05,0-4.79,0-4.79,4.91-5.53.13-1.93.15-3.94.4-5.91C27.44,13.09,31.45,9,38,8.18c2.75-.33,5.56-.13,8.34-.23,1.77-.06,2.42.82,2.37,2.47-.08,2.78-.23,5.57-.16,8.35.06,2.29-.83,3.06-3.13,3-3.41-.07-4.63,1-5,3.72C40.43,25.65,40.55,25.81,40.66,26.12ZM46,28.55c-2,0-3.62-.08-5.2,0-2.07.14-2.68-1-2.66-2.77.06-3.66,1.89-5.59,5.68-6.24.89-.15,2.35-.82,2.41-1.36.25-2.57.11-5.18.11-8.41-3.38.31-6.59.28-9.64,1-5.12,1.17-7.69,4.49-8.1,9.69a29.73,29.73,0,0,0-.05,4.81c.19,2.1-.59,2.89-2.69,2.89-.79,0-2.2.72-2.24,1.21-.22,2.72-.11,5.46-.11,8.23.73.07,1.14.14,1.56.14,3.41,0,3.4,0,3.39,3.49,0,5.48,0,11-.08,16.46,0,1.52.49,2.15,2,2.09,1.77-.07,3.55-.05,5.31,0,1.56.1,2.06-.46,2-2q-.27-7.2-.28-14.42c0-5.78,0-5.78,5.91-5.87.33,0,.76.13,1,0C45,37,45.93,36.53,46,36,46.14,33.58,46,31.14,46,28.55Z"/><path class="cls-1" d="M31.68,8.45c-5.78,2.34-6.74,7.45-7.26,12.81C22.89,15.38,26.48,9.05,31.68,8.45Z"/><path class="cls-1" d="M41,59.35l.49-11.16.35,0v11.1Z"/></svg>