<svg id="Слой_1" data-name="Слой 1" xmlns="http://www.w3.org/2000/svg" viewBox="0 0 70 70"><path d="M28.86,41.48c0-3.54.08-7.09,0-10.63,0-1.77.73-2.6,2.36-2.45,2.43.23,4.84.74,7.27,1a3.77,3.77,0,0,0,1.82-.51c7.62-3.47,13.68-.31,14.56,8,.55,5.17.3,10.43.41,15.66,0,1.69-.67,2.41-2.46,2.24a31.66,31.66,0,0,0-5.06,0c-1.8.13-2.41-.66-2.36-2.36.1-3.79.28-7.59.09-11.38-.07-1.23-.93-3.11-1.86-3.43-1.14-.4-2.92.25-4.09,1-.7.43-1,1.87-1.08,2.88-.26,3.7-.38,7.41-.52,11.12-.06,1.55-.73,2.21-2.36,2.2-8.14,0-7,1.07-7.09-6.79,0-2.2,0-4.39,0-6.58Zm7.34,11c0-4.15-.15-8.1,0-12,.15-3,2.87-5.19,6.08-5.29s4.77,1.36,5.32,4.85a19.16,19.16,0,0,1,.13,3c0,3.09,0,6.18,0,9.34H53.6c-.46-5.91-.5-11.66-1.47-17.26-.84-4.9-4.78-6.59-9.46-4.81C41.42,30.8,40.25,31.51,39,32c-.58.22-1.7.47-1.83.25-1.5-2.49-3.86-1.1-6.17-1.74v22Z"/><path d="M26.78,41.94c0,3.54-.05,7.09,0,10.63,0,1.77-.71,2.42-2.4,2.36-2-.08-4.05-.14-6.07-.08-1.5,0-2.22-.57-2.21-2,.1-7.42.16-14.85.39-22.26,0-.63,1.19-1.23,1.84-1.83.05,0,.16,0,.25,0,9.56.05,7.93-1.2,8.07,7.42,0,1.94,0,3.88,0,5.82ZM18.52,52.48h5.81V30.92c-1.47,0-2.72,0-4,0s-1.86.42-1.86,1.73C18.53,39.17,18.52,45.72,18.52,52.48Z"/><path d="M21.22,16.06a5.71,5.71,0,0,1,5.89,5.88,5.61,5.61,0,0,1-5.74,5.46,5.71,5.71,0,0,1-5.6-5.67C15.81,18.35,18,16,21.22,16.06Zm3.67,5.59a3.57,3.57,0,0,0-3.68-3.38A3.23,3.23,0,0,0,18,21.75a3.64,3.64,0,0,0,3.67,3.43A3.46,3.46,0,0,0,24.89,21.65Z"/><path d="M47,25.4c6.39.2,10.3,5.82,9.22,12.59C53.56,28,54.89,29.39,47,25.4Z"/><path d="M15.26,25.53c-1.79-3-2.22-5.46-.78-7.92a4.52,4.52,0,0,1,4.69-2.51C14.21,17.81,14.2,17.84,15.26,25.53Z"/></svg>